<svg width="1460" height="1844" xmlns="http://www.w3.org/2000/svg" xmlns:xlink="http://www.w3.org/1999/xlink" xml:space="preserve" overflow="hidden"><defs><clipPath id="clip0"><rect x="2199" y="502" width="1460" height="1844"/></clipPath></defs><g clip-path="url(#clip0)" transform="translate(-2199 -502)"><path d="M2268 1477.12 3566.13 1477.13 3566.13 1490.88 2268 1490.88ZM3559.26 1463.38 3600.51 1484 3559.26 1504.63Z"/><path d="M2301.12 1531.57 2301.13 627.375 2314.88 627.375 2314.88 1531.57ZM2287.38 634.25 2308 593 2328.63 634.25Z"/><text font-family="Verdana,Verdana_MSFontService,sans-serif" font-weight="400" font-size="41" transform="matrix(1 0 0 1 3596.48 1569)">t<tspan font-size="41" x="-1364.17" y="-1010">E [MWh]</tspan></text><rect x="2716.5" y="1356.5" width="101" height="117" stroke="#862702" stroke-width="4.58333" stroke-miterlimit="8" fill="#B83903"/><rect x="2834.5" y="1356.5" width="100" height="117" stroke="#862702" stroke-width="4.58333" stroke-miterlimit="8" fill="#B83903"/><rect x="2953.5" y="1356.5" width="100" height="117" stroke="#862702" stroke-width="4.58333" stroke-miterlimit="8" fill="#B83903"/><rect x="3072.5" y="1356.5" width="100" height="117" stroke="#862702" stroke-width="4.58333" stroke-miterlimit="8" fill="#B83903"/><rect x="2834.5" y="1226.5" width="100" height="117" stroke="#862702" stroke-width="4.58333" stroke-miterlimit="8" fill="#B83903"/><rect x="2951.5" y="1226.5" width="101" height="117" stroke="#862702" stroke-width="4.58333" stroke-miterlimit="8" fill="#B83903"/><rect x="2833.5" y="1092.5" width="101" height="118" stroke="#08182B" stroke-width="4.58333" stroke-miterlimit="8" fill="#0F253E"/><rect x="2951.5" y="1093.5" width="100" height="117" stroke="#08182B" stroke-width="4.58333" stroke-miterlimit="8" fill="#0F253E"/><rect x="2716.5" y="1229.5" width="99.9998" height="117" stroke="#08182B" stroke-width="4.58333" stroke-miterlimit="8" fill="#0F253E"/><rect x="3072.5" y="1229.5" width="100" height="117" stroke="#08182B" stroke-width="4.58333" stroke-miterlimit="8" fill="#0F253E"/><rect x="2596.5" y="1358.5" width="101" height="117" stroke="#08182B" stroke-width="4.58333" stroke-miterlimit="8" fill="#0F253E"/><rect x="3189.5" y="1358.5" width="101" height="117" stroke="#08182B" stroke-width="4.58333" stroke-miterlimit="8" fill="#0F253E"/><path d="M2671 1414.85 2723.99 1414.85 2723.99 1417.15 2671 1417.15ZM2719.41 1402.25 2746.91 1416 2719.41 1429.75Z" fill="#FF0000"/><path d="M2795 1295.85 2847.99 1295.85 2847.99 1298.15 2795 1298.15ZM2843.41 1283.25 2870.91 1297 2843.41 1310.75Z" fill="#FF0000"/><path d="M2891.15 1182 2891.15 1264.59 2888.85 1264.59 2888.85 1182ZM2903.75 1260.01 2890 1287.51 2876.25 1260.01Z" fill="#FF0000"/><path d="M3002.15 1182 3002.15 1264.59 2999.85 1264.59 2999.85 1182ZM3014.75 1260.01 3001 1287.51 2987.25 1260.01Z" fill="#FF0000"/><path d="M4.97153e-06-1.14583 60.2615-1.14557 60.2615 1.14609-4.97153e-06 1.14583ZM55.6782-13.7498 83.1781 0.000360892 55.6781 13.7502Z" fill="#FF0000" transform="matrix(-1 0 0 1 3106.18 1297)"/><path d="M4.97153e-06-1.14583 60.2615-1.14557 60.2615 1.14609-4.97153e-06 1.14583ZM55.6782-13.7498 83.1781 0.000360892 55.6781 13.7502Z" fill="#FF0000" transform="matrix(-1 0 0 1 3222.18 1419)"/><text font-family="Verdana,Verdana_MSFontService,sans-serif" font-weight="400" font-size="41" transform="matrix(1 0 0 1 2418.73 694)">Additional <tspan font-size="41" x="220.573" y="0">bidding</tspan><tspan font-size="41" x="387.292" y="0">blocks</tspan><tspan font-size="41" x="532.24" y="0">are</tspan><tspan font-size="41" x="0" y="49">depending</tspan><tspan font-size="41" x="230.885" y="49">on Block 0</tspan></text><path d="M2284 2003.12 3289.63 2003.13 3289.63 2016.88 2284 2016.87ZM3282.75 1989.38 3324 2010 3282.75 2030.63Z"/><path d="M2301.12 2345.64 2301.13 1691.38 2314.88 1691.38 2314.88 2345.64ZM2287.38 1698.25 2308 1657 2328.63 1698.25Z"/><text font-family="Verdana,Verdana_MSFontService,sans-serif" font-weight="400" font-size="41" transform="matrix(1 0 0 1 3328.44 2087)">t<tspan font-size="41" x="-1075" y="-462">E [MWh]</tspan></text><rect x="2726.5" y="1916.5" width="78" height="85.9999" stroke="#862702" stroke-width="4.58333" stroke-miterlimit="8" fill="#B83903"/><rect x="2819.5" y="2119.5" width="78" height="86" stroke="#862702" stroke-width="4.58333" stroke-miterlimit="8" fill="#B83903"/><rect x="2726.5" y="1821.5" width="78" height="85.9999" stroke="#862702" stroke-width="4.58333" stroke-miterlimit="8" fill="#B83903"/><rect x="2818.5" y="2024.5" width="78" height="86.0004" stroke="#862702" stroke-width="4.58333" stroke-miterlimit="8" fill="#B83903"/><rect x="2500.5" y="1821.5" width="78" height="85.9999" stroke="#B66B14" stroke-width="4.58333" stroke-miterlimit="8" fill="#F79320"/><rect x="2500.5" y="1917.5" width="78" height="85.9999" stroke="#B66B14" stroke-width="4.58333" stroke-miterlimit="8" fill="#F79320"/><rect x="2585.5" y="2024.5" width="78" height="86.0004" stroke="#B66B14" stroke-width="4.58333" stroke-miterlimit="8" fill="#F79320"/><rect x="2585.5" y="2119.5" width="78" height="86" stroke="#B66B14" stroke-width="4.58333" stroke-miterlimit="8" fill="#F79320"/><rect x="3060.5" y="1821.5" width="79" height="85.9999" stroke="#2F4966" stroke-width="4.58333" stroke-miterlimit="8" fill="#44668D"/><rect x="3060.5" y="1915.5" width="79" height="86.0002" stroke="#2F4966" stroke-width="4.58333" stroke-miterlimit="8" fill="#44668D"/><rect x="3151.5" y="2021.5" width="79" height="85.9999" stroke="#2F4966" stroke-width="4.58333" stroke-miterlimit="8" fill="#44668D"/><rect x="3153.5" y="2119.5" width="78" height="86" stroke="#2F4966" stroke-width="4.58333" stroke-miterlimit="8" fill="#44668D"/><rect x="2726.5" y="1715.5" width="78" height="85.9999" stroke="#08182B" stroke-width="4.58333" stroke-miterlimit="8" fill="#0F253E"/><rect x="2818.5" y="2218.5" width="78" height="86" stroke="#08182B" stroke-width="4.58333" stroke-miterlimit="8" fill="#0F253E"/><path d="M1.14583-4.60966e-06 1.1461 66.7911-1.14556 66.7911-1.14583 4.60966e-06ZM13.7503 62.2077 0.000360892 89.7077-13.7497 62.2078Z" fill="#FF0000" transform="matrix(1 0 0 -1 2765 1860.71)"/><path d="M1.14293-0.0815057 3.64503 35.0048 1.35917 35.1678-1.14293 0.0815057ZM15.8913 29.5365 4.13222 57.9449-11.5391 31.4926Z" fill="#FF0000" transform="matrix(-1 0 0 1 2865.13 2185)"/></g></svg>